# AST/ASF file generated using VICON BodyLanguage
# -----------------------------------------------
:version 1.10
:name VICON
:units
  mass 1.0
  length 0.45
  angle deg
:documentation
   .ast/.asf automatically generated from VICON data using
   VICON BodyBuilder and BodyLanguage model FoxedUp or BRILLIANT.MOD
:root
   order TX TY TZ RX RY RZ
   axis XYZ
   position 0 0 0  
   orientation 0 0 0 
:bonedata
  begin
     id 1 
     name lhipjoint
     direction 0.573633 -0.743009 0.344793 
     length 2.46257 
     axis 0 0 0  XYZ
  end
  begin
     id 2 
     name lfemur
     direction 0.34202 -0.939693 0  
     length 7.3842  
     axis 0 0 20  XYZ
    dof rx ry rz
    limits (-160.0 20.0)
           (-70.0 70.0)
           (-60.0 70.0)
  end
  begin
     id 3 
     name ltibia
     direction 0.34202 -0.939693 0   
     length 7.50407   
     axis 0 0 20   XYZ
    dof rx
    limits (-10.0 170.0)
  end
  begin
     id 4 
     name lfoot
     direction 0.110749 -0.304281 0.946123   
     length 1.95925   
     axis -90 7.62852e-016 20   XYZ
    dof rx rz
    limits (-45.0 90.0)
           (-70.0 20.0)
  end
  begin
     id 5 
     name ltoes
     direction 1.53554e-011 -4.21843e-011 1   
     length 0.978318   
     axis -90 7.62852e-016 20   XYZ
    dof rx
    limits (-90.0 20.0)
  end
  begin
     id 6 
     name rhipjoint
     direction -0.488109 -0.791693 0.367385   
     length 2.31113  
     axis 0 0 0  XYZ 
  end
  begin
     id 7 
     name rfemur
     direction -0.34202 -0.939693 0   
     length 7.40965   
     axis 0 0 -20   XYZ
    dof rx ry rz
    limits (-160.0 20.0)
           (-70.0 70.0)
           (-70.0 60.0)
  end
  begin
     id 8 
     name rtibia
     direction -0.34202 -0.939693 0   
     length 7.55548   
     axis 0 0 -20   XYZ
    dof rx
    limits (-10.0 170.0)
 end
 begin
     id 9 
     name rfoot
     direction -0.127594 -0.350561 0.927808   
     length 2.07199  
     axis -90 -7.62852e-016 -20   XYZ
    dof rx rz
    limits (-45.0 90.0)
           (-20.0 70.0)
  end
  begin
     id 10 
     name rtoes
     direction -1.53542e-011 -4.21909e-011 1   
     length 1.02667   
     axis -90 -7.62852e-016 -20   XYZ
    dof rx
    limits (-90.0 20.0)
  end
  begin
     id 11 
     name lowerback
     direction -0.0103342 0.997298 -0.0727278   
     length 2.02836   
     axis 0 0 0   XYZ
    dof rx ry rz
    limits (-20.0 45.0)
           (-30.0 30.0)
           (-30.0 30.0)
  end
  begin
     id 12 
     name upperback
     direction 0.0171146 0.999786 -0.011606   
     length 2.03179   
     axis 0 0 0   XYZ
    dof rx ry rz
    limits (-20.0 45.0)
           (-30.0 30.0)
           (-30.0 30.0)
  end
  begin
     id 13 
     name thorax
     direction 0.0216927 0.999513 0.0224343   
     length 2.03882   
     axis 0 0 0   XYZ
    dof rx ry rz
    limits (-20.0 45.0)
           (-30.0 30.0)
           (-30.0 30.0)
  end
  begin
     id 14 
     name lowerneck
     direction 0.000989287 0.993907 0.110221   
     length 1.75428   
     axis 0 0 0   XYZ
    dof rx ry rz
    limits (-20.0 45.0)
           (-30.0 30.0)
           (-30.0 30.0)
  end
  begin
     id 15 
     name upperneck
     direction -0.0172474 0.994813 -0.100253   
     length 1.77058   
     axis 0 0 0   XYZ
    dof rx ry rz
    limits (-20.0 45.0)
           (-30.0 30.0)
           (-30.0 30.0)
  end
  begin
     id 16
     name head
     direction -0.00486455 0.99894 -0.0457663  
     length 1.77427  
     axis 0 0 0   XYZ
    dof rx ry rz
    limits (-20.0 45.0)
           (-30.0 30.0)
           (-30.0 30.0)
  end
  begin
     id 17 
     name lclavicle
     direction 0.927314 0.333734 -0.169441  
     length 3.97584  
     axis 0 0 0   XYZ
    dof ry rz
    limits (-20.0 10.0)
           (0.0 20.0)
  end
  begin
     id 18 
     name lhumerus
     direction 1 -4.48965e-011 -3.25313e-028   
     length 4.76468   
     axis 180 -30 -90   XYZ
    dof rx ry rz
    limits (-60.0 90.0)
           (-90.0 90.0)
           (-90.0 90.0)
  end
  begin
     id 19
     name lradius
     direction 1 -4.48969e-011 -2.8465e-028   
     length 3.52712   
     axis -180 -30 -90   XYZ
    dof rx
    limits (-10.0 170.0)
  end
  begin
     id 20
     name lwrist
     direction 1 -4.4896e-011 -7.78665e-028   
     length 1.76356   
     axis 1.91374e-015 90 90   XYZ
    dof ry
    limits (-180.0 0.0)
 end
  begin
     id 21 
     name lhand
     direction 1 -4.48959e-011 -1.55733e-027   
     length 0.859564   
     axis 9.9371e-016 90 90   XYZ
    dof rx rz
    limits (-90.0 90.0)
           (-45.0 45.0)
  end
  begin
     id 22 
     name lfingers
     direction 1 -4.48965e-011 -3.11466e-027   
     length 0.693002   
     axis 1.98742e-015 90 90   XYZ
    dof rx
    limits (0.0 90.0)
  end
  begin
     id 23
     name lthumb
     direction 0.707107 -6.34948e-011 0.707107   
     length 0.995017   
     axis -90 45 2.85299e-015   XYZ
    dof rx rz
    limits (-45.0 45.0)
           (-45.0 45.0)
  end
  begin
     id 24 
     name rclavicle
     direction -0.899388 0.348209 -0.264294   
     length 3.68366  
     axis 0 0 0   XYZ 
    dof ry rz
    limits (-10.0 20.0)
           (-20.0 0.0)
  end
  begin
     id 25 
     name rhumerus
     direction -1 -4.48965e-011 -3.01536e-027  
     length 4.90577   
     axis 180 30 90   XYZ
    dof rx ry rz
    limits (-90.0 60.0)
           (-90.0 90.0)
           (-90.0 90.0)
  end
  begin
     id 26 
     name rradius
     direction -1 -4.48966e-011 3.93291e-027   
     length 3.42692   
     axis -180 30 90   XYZ
    dof rx
    limits (-10.0 170.0)
  end
  begin
     id 27 
     name rwrist
     direction -1 -4.48969e-011 -7.78665e-028   
     length 1.71346   
     axis 1.91374e-015 -90 -90   XYZ
    dof ry
    limits (-180.0 0.0)
  end
  begin
     id 28
     name rhand
     direction -1 -4.48967e-011 -1.55733e-027   
     length 0.740957   
     axis 9.9371e-016 -90 -90   XYZ
    dof rx rz
    limits (-90.0 90.0)
           (-45.0 45.0)
  end
  begin
     id 29
     name rfingers
     direction -1 -4.48949e-011 -3.11466e-027   
     length 0.597378   
     axis 1.98742e-015 -90 -90   XYZ
    dof rx
    limits (0.0 90.0)
  end
  begin
     id 30
     name rthumb
     direction -0.707107 -6.34931e-011 0.707107   
     length 0.857719   
     axis -90 -45 -2.85299e-015   XYZ
    dof rx rz
    limits (-45.0 45.0)
           (-45.0 45.0)
  end
:hierarchy
  begin
    root lhipjoint rhipjoint lowerback
    lhipjoint lfemur
    lfemur ltibia
    ltibia lfoot
    lfoot ltoes
    rhipjoint rfemur
    rfemur rtibia
    rtibia rfoot
    rfoot rtoes
    lowerback upperback
    upperback thorax
    thorax lowerneck lclavicle rclavicle
    lowerneck upperneck
    upperneck head
    lclavicle lhumerus
    lhumerus lradius
    lradius lwrist
    lwrist lhand lthumb
    lhand lfingers
    rclavicle rhumerus
    rhumerus rradius
    rradius rwrist
    rwrist rhand rthumb
    rhand rfingers
  end

#!OML:ASF E:\I on waltz\AllaLogoMonkeySwing\Project 1\Capture day 1\Session 1\Subject1.ASF
:FULLY-SPECIFIED
:DEGREES
280
root 0.150534 17.7102 2.25988 181.56 -17.7207 178.888
lowerback 11.533 0.403007 -3.30534
upperback 0.351716 0.129596 1.61183
thorax -6.12267 0.152796 3.54924
lowerneck -11.4377 -2.82034 -4.04885
upperneck 13.7392 -3.85057 3.70179
head 6.19847 -1.84938 1.4963
rclavicle -2.54444e-014 2.78299e-015
rhumerus -41.5874 -27.4941 -63.4799
rradius 25.3162
rwrist 4.16033
rhand -5.90956 -36.2551
rfingers 7.12502
rthumb 19.9193 -65.2542
lclavicle -2.54444e-014 2.78299e-015
lhumerus -45.7563 27.9274 67.3469
lradius 49.8037
lwrist 12.7613
lhand -13.0111 -12.7958
lfingers 7.12502
lthumb 13.0825 16.7739
rfemur -5.90216 -7.93202 15.3702
rtibia 27.3253
rfoot -19.9497 -12.0226
rtoes 13.9088
lfemur -0.827228 -6.55747 -9.87287
ltibia 10.6902
lfoot -13.9682 -1.15256
ltoes -40.7279
281
root 0.184818 17.7087 2.2402 181.551 -17.2368 178.809
lowerback 11.5094 0.274035 -3.47599
upperback 0.265716 -0.0647746 1.52459
thorax -6.1838 0.0660623 3.58636
lowerneck -11.6391 -2.58555 -3.74573
upperneck 14.0698 -3.55916 3.46115
head 6.31616 -1.71243 1.39324
rclavicle -1.07344e-014 -1.59028e-015
rhumerus -42.2744 -28.779 -62.5352
rradius 24.1159
rwrist 5.77024
rhand -5.77576 -36.4501
rfingers 7.12502
rthumb 20.0479 -65.4358
lclavicle -1.07344e-014 -1.59028e-015
lhumerus -45.3455 27.7213 67.1762
lradius 49.9202
lwrist 12.7807
lhand -12.5359 -12.6789
lfingers 7.12502
lthumb 13.5405 16.8609
rfemur -5.90667 -7.51384 15.5082
rtibia 27.3512
rfoot -20.0297 -11.9499
rtoes 14.0788
lfemur -0.403691 -6.549 -9.87731
ltibia 10.3069
lfoot -13.7538 -0.762285
ltoes -40.7831
282
root 0.219561 17.706 2.21671 181.521 -16.7025 178.754
lowerback 11.5489 0.183048 -3.57731
upperback 0.114983 -0.201181 1.42343
thorax -6.35402 0.0100403 3.56102
lowerneck -11.7683 -2.36466 -3.51461
upperneck 14.4304 -3.30829 3.37971
head 6.4382 -1.58921 1.34996
rclavicle 4.67641e-014 9.54166e-015
rhumerus -43.1944 -29.888 -61.5622
rradius 23.193
rwrist 7.17003
rhand -5.77817 -36.7226
rfingers 7.12502
rthumb 20.0456 -65.7086
lclavicle 4.67641e-014 9.54166e-015
lhumerus -45.017 27.3246 67.0886
lradius 49.9015
lwrist 12.4822
lhand -12.0856 -12.5938
lfingers 7.12502
lthumb 13.9745 16.9165
rfemur -5.9131 -7.09041 15.6678
rtibia 27.3846
rfoot -20.2178 -11.8611
rtoes 14.2767
lfemur 0.0180626 -6.5079 -9.84918
ltibia 9.987
lfoot -13.5489 -0.361196
ltoes -40.9323
283
root 0.258878 17.702 2.19196 181.475 -16.1832 178.763
lowerback 11.6124 0.0792782 -3.65651
upperback -0.0646897 -0.350836 1.3579
thorax -6.56759 -0.0507741 3.56416
lowerneck -11.8212 -2.11467 -3.35418
upperneck 14.7775 -3.02257 3.37623
head 6.54497 -1.44858 1.34754
rclavicle -1.56046e-014 -1.82882e-014
rhumerus -44.203 -30.9444 -60.5231
rradius 22.4369
rwrist 8.55634
rhand -5.71752 -36.9827
rfingers 7.12502
rthumb 20.1039 -65.9625
lclavicle -1.56046e-014 -1.82882e-014
lhumerus -44.7982 26.7458 67.0954
lradius 49.7662
lwrist 12.0701
lhand -11.8398 -12.5112
lfingers 7.12502
lthumb 14.2114 16.9826
rfemur -5.95634 -6.65601 15.9072
rtibia 27.437
rfoot -20.5213 -11.778
rtoes 14.8152
lfemur 0.354388 -6.49431 -9.71806
ltibia 9.79465
lfoot -13.4047 0.0974826
ltoes -41.1638
284
root 0.302092 17.6975 2.16122 181.387 -15.6315 178.856
lowerback 11.481 -0.0625175 -3.77742
upperback -0.0769893 -0.547965 1.3944
thorax -6.48776 -0.144048 3.70281
lowerneck -12.1173 -1.81686 -3.04262
upperneck 15.1339 -2.6248 3.02891
head 6.68737 -1.2678 1.21931
rclavicle 8.05078e-015 9.93923e-015
rhumerus -44.8435 -31.866 -59.6878
rradius 21.8232
rwrist 9.80751
rhand -5.62802 -37.1759
rfingers 7.12502
rthumb 20.1899 -66.1467
lclavicle 8.05078e-015 9.93923e-015
lhumerus -44.4328 26.5026 67.1841
lradius 49.4365
lwrist 11.5001
lhand -11.6068 -12.5157
lfingers 7.12502
lthumb 14.4359 16.9622
rfemur -5.92441 -6.08427 16.2834
rtibia 27.4285
rfoot -20.6145 -11.7
rtoes 15.1676
lfemur 0.753179 -6.33561 -9.43353
ltibia 9.56043
lfoot -13.2974 0.463634
ltoes -41.3578
285
root 0.346383 17.6915 2.12607 181.346 -15.0658 178.863
lowerback 11.1544 -0.187932 -4.00152
upperback 0.00579816 -0.731885 1.39767
thorax -6.19633 -0.236312 3.85646
lowerneck -12.5021 -1.53004 -2.50307
upperneck 15.4639 -2.24503 2.48548
head 6.83582 -1.09786 0.988892
rclavicle -1.02871e-014 -1.59028e-015
rhumerus -45.3114 -32.6314 -59.1377
rradius 21.433
rwrist 10.6387
rhand -5.57309 -37.2726
rfingers 7.12502
rthumb 20.2427 -66.2378
lclavicle -1.02871e-014 -1.59028e-015
lhumerus -43.9475 26.2932 67.3742
lradius 49.0667
lwrist 10.9215
lhand -11.5372 -12.4767
lfingers 7.12502
lthumb 14.503 16.9965
rfemur -5.89908 -5.57353 16.561
rtibia 27.4751
rfoot -20.5099 -11.601
rtoes 14.8176
lfemur 1.14246 -6.1515 -9.24101
ltibia 9.34425
lfoot -13.1966 0.797043
ltoes -41.5827
286
root 0.390438 17.6837 2.09085 181.358 -14.5281 178.828
lowerback 10.9029 -0.327551 -4.19642
upperback -0.00888965 -0.932465 1.35982
thorax -6.04868 -0.331981 3.95352
lowerneck -12.7235 -1.23948 -2.17659
upperneck 15.7616 -1.89431 2.31639
head 6.95633 -0.926689 0.912806
rclavicle -2.00027e-014 4.77083e-015
rhumerus -45.7855 -33.1262 -58.7671
rradius 21.1668
rwrist 11.1059
rhand -5.41392 -37.2771
rfingers 7.12502
rthumb 20.3957 -66.226
lclavicle -2.00027e-014 4.77083e-015
lhumerus -43.8925 25.644 67.6679
lradius 49.1343
lwrist 10.7227
lhand -11.5249 -12.1999
lfingers 7.12502
lthumb 14.5148 17.2724
rfemur -5.93999 -5.19849 16.7638
rtibia 27.587
rfoot -20.5428 -11.4321
rtoes 14.4315
lfemur 1.40255 -6.05074 -9.11491
ltibia 9.30941
lfoot -13.1633 1.22605
ltoes -41.8605
